<svg width="760" height="159" viewBox="0 0 760 159" fill="none" xmlns="http://www.w3.org/2000/svg">
<rect width="760" height="159" fill="#D4D4D4"/>
<path fill-rule="evenodd" clip-rule="evenodd" d="M742.326 86.5673H159.07V82.4445H742.326V86.5673Z" fill="#11232A"/>
<path d="M189.234 63.2232C185.322 63.2232 181.693 62.6107 178.347 61.3858C175.047 60.1138 172.172 58.3236 169.722 56.0152C167.318 53.7067 165.433 50.9978 164.066 47.8885C162.699 44.7321 162.016 41.2694 162.016 37.5005C162.016 33.7316 162.699 30.2925 164.066 27.1832C165.433 24.0267 167.318 21.2943 169.722 18.9858C172.172 16.6774 175.047 14.9107 178.347 13.6858C181.693 12.4138 185.322 11.7778 189.234 11.7778C193.806 11.7778 197.883 12.5787 201.465 14.1805C205.094 15.7823 208.11 18.0907 210.514 21.1058L201.606 29.1618C200.004 27.2774 198.236 25.8405 196.304 24.8512C194.419 23.8618 192.298 23.3672 189.941 23.3672C187.914 23.3672 186.053 23.6969 184.356 24.3565C182.659 25.0161 181.198 25.9818 179.973 27.2538C178.794 28.4787 177.852 29.9627 177.145 31.7058C176.485 33.4489 176.155 35.3805 176.155 37.5005C176.155 39.6205 176.485 41.5521 177.145 43.2952C177.852 45.0383 178.794 46.5458 179.973 47.8178C181.198 49.0427 182.659 49.9849 184.356 50.6445C186.053 51.3041 187.914 51.6338 189.941 51.6338C192.298 51.6338 194.419 51.1392 196.304 50.1498C198.236 49.1605 200.004 47.7236 201.606 45.8392L210.514 53.8952C208.11 56.8632 205.094 59.1716 201.465 60.8205C197.883 62.4223 193.806 63.2232 189.234 63.2232ZM214.599 62.2338L230.983 25.1338H241.323L257.76 62.2338H246.837L234.006 30.2748H238.142L225.31 62.2338H214.599ZM223.56 55.0258L226.264 47.2878H244.398L247.103 55.0258H223.56ZM264.271 62.2338V25.1338H272.914L288.291 50.3618H283.731L298.683 25.1338H307.326L307.432 62.2338H297.782L297.676 39.8148H299.319L288.132 58.5768H283.466L271.96 39.8148H273.974V62.2338H264.271ZM318.396 62.2338V25.1338H328.894V62.2338H318.396ZM339.9 62.2338V25.1338H350.398V53.9128H368.108V62.2338H339.9ZM375.796 62.2338V25.1338H386.295V53.9128H404.005V62.2338H375.796ZM407.602 62.2338L423.986 25.1338H434.325L450.763 62.2338H439.84L427.008 30.2748H431.144L418.312 62.2338H407.602ZM416.563 55.0258L419.267 47.2878H437.401L440.105 55.0258H416.563ZM485.413 62.2338L473.377 25.1338H484.194L494.321 57.2518H488.86L499.517 25.1338H509.168L519.242 57.2518H513.993L524.438 25.1338H534.46L522.423 62.2338H511.183L502.593 34.9388H505.615L496.654 62.2338H485.413ZM551.407 39.4968H568.639V47.3408H551.407V39.4968ZM552.149 54.1248H571.555V62.2338H541.756V25.1338H570.866V33.2428H552.149V54.1248ZM580.917 62.2338V25.1338H597.884C601.278 25.1338 604.194 25.6815 606.633 26.7768C609.108 27.8722 611.016 29.4622 612.36 31.5468C613.703 33.5962 614.375 36.0342 614.375 38.8608C614.375 41.6522 613.703 44.0725 612.36 46.1218C611.016 48.1358 609.108 49.6905 606.633 50.7858C604.194 51.8458 601.278 52.3758 597.884 52.3758H586.75L591.416 47.9768V62.2338H580.917ZM603.876 62.2338L594.65 48.7188H605.838L615.117 62.2338H603.876ZM591.416 49.0898L586.75 44.2668H597.248C599.44 44.2668 601.066 43.7898 602.126 42.8358C603.222 41.8818 603.77 40.5568 603.77 38.8608C603.77 37.1295 603.222 35.7868 602.126 34.8328C601.066 33.8788 599.44 33.4018 597.248 33.4018H586.75L591.416 28.5788V49.0898ZM623.701 62.2338V25.1338H632.344L652.811 49.8318H648.728V25.1338H659.014V62.2338H650.371L629.905 37.5358H633.987V62.2338H623.701ZM679.605 39.4968H696.838V47.3408H679.605V39.4968ZM680.347 54.1248H699.754V62.2338H669.955V25.1338H699.065V33.2428H680.347V54.1248ZM709.115 62.2338V25.1338H726.083C729.476 25.1338 732.393 25.6815 734.832 26.7768C737.306 27.8722 739.215 29.4622 740.558 31.5468C741.901 33.5962 742.573 36.0342 742.573 38.8608C742.573 41.6522 741.901 44.0725 740.558 46.1218C739.215 48.1358 737.306 49.6905 734.832 50.7858C732.393 51.8458 729.476 52.3758 726.083 52.3758H714.948L719.614 47.9768V62.2338H709.115ZM732.074 62.2338L722.848 48.7188H734.036L743.315 62.2338H732.074ZM719.614 49.0898L714.948 44.2668H725.447C727.638 44.2668 729.264 43.7898 730.325 42.8358C731.42 41.8818 731.968 40.5568 731.968 38.8608C731.968 37.1295 731.42 35.7868 730.325 34.8328C729.264 33.8788 727.638 33.4018 725.447 33.4018H714.948L719.614 28.5788V49.0898Z" fill="#11232A"/>
<path d="M125.057 5.11255H23.431C21.8041 5.11255 20.4853 6.43082 20.4853 8.05699V147.398C20.4853 149.025 21.8041 150.343 23.431 150.343H125.057C126.684 150.343 128.003 149.025 128.003 147.398V8.05699C128.003 6.43082 126.684 5.11255 125.057 5.11255Z" fill="white"/>
<path d="M110.529 26.5H83.7555C82.9905 26.5 82.4806 25.3222 82.4806 23.5555C82.4806 21.7889 82.9905 20.6111 83.7555 20.6111H110.529C111.294 20.6111 111.804 21.7889 111.804 23.5555C111.804 25.3222 111.294 26.5 110.529 26.5Z" fill="#A6A6A6"/>
<path d="M116.677 41.2223H92.4705C91.7788 41.2223 91.3178 40.0445 91.3178 38.2778C91.3178 36.5112 91.7788 35.3334 92.4705 35.3334H116.677C117.368 35.3334 117.829 36.5112 117.829 38.2778C117.829 40.0445 117.368 41.2223 116.677 41.2223Z" fill="#A6A6A6"/>
<path d="M125.258 64.7778H95.6725C94.8271 64.7778 94.2635 63.6 94.2635 61.8334C94.2635 60.0667 94.8271 58.8889 95.6725 58.8889H125.258C126.103 58.8889 126.667 60.0667 126.667 61.8334C126.667 63.6 126.103 64.7778 125.258 64.7778Z" fill="#A6A6A6"/>
<path d="M107.84 79.5H83.6333C82.9416 79.5 82.4806 78.3222 82.4806 76.5555C82.4806 74.7889 82.9416 73.6111 83.6333 73.6111H107.84C108.531 73.6111 108.992 74.7889 108.992 76.5555C108.992 78.3222 108.531 79.5 107.84 79.5Z" fill="#A6A6A6"/>
<path d="M120.71 97.1667H44.8527C42.6852 97.1667 41.2403 95.9889 41.2403 94.2223C41.2403 92.4556 42.6852 91.2778 44.8527 91.2778H120.71C122.877 91.2778 124.322 92.4556 124.322 94.2223C124.322 95.9889 122.877 97.1667 120.71 97.1667Z" fill="#A6A6A6"/>
<path d="M92.6617 114.833H43.5777C42.1753 114.833 41.2403 113.656 41.2403 111.889C41.2403 110.122 42.1753 108.944 43.5777 108.944H92.6617C94.0641 108.944 94.9991 110.122 94.9991 111.889C94.9991 113.656 94.0641 114.833 92.6617 114.833Z" fill="#A6A6A6"/>
<path d="M116.035 132.5H44.64C42.6003 132.5 41.2403 131.322 41.2403 129.556C41.2403 127.789 42.6003 126.611 44.64 126.611H116.035C118.075 126.611 119.435 127.789 119.435 129.556C119.435 131.322 118.075 132.5 116.035 132.5Z" fill="#A6A6A6"/>
<path d="M53.7597 44.9028C57.4427 44.9028 60.975 43.3905 63.5793 40.6984C66.1836 38.0066 67.6468 34.3555 67.6468 30.5486C67.6468 26.7417 66.1836 23.0906 63.5793 20.3987C60.975 17.7068 57.4427 16.1945 53.7597 16.1945C50.0766 16.1945 46.5444 17.7068 43.9401 20.3987C41.3358 23.0906 39.8726 26.7417 39.8726 30.5486C39.8726 34.3555 41.3358 38.0066 43.9401 40.6984C46.5444 43.3905 50.0766 44.9028 53.7597 44.9028ZM48.8017 50.2855C38.1152 50.2855 29.4574 59.2346 29.4574 70.2804C29.4574 72.1198 30.9002 73.6111 32.6797 73.6111H74.8397C76.6192 73.6111 78.062 72.1198 78.062 70.2804C78.062 59.2346 69.4042 50.2855 58.7177 50.2855H48.8017Z" fill="#DA6623"/>
<path d="M105.6 153.604C107.131 156.474 110.699 157.561 113.571 156.031C116.442 154.501 117.529 150.935 115.998 148.065L105.6 153.604ZM69.9174 86.6859L105.6 153.604L115.998 148.065L80.3155 81.1462L69.9174 86.6859Z" fill="#11232A"/>
<path d="M94.2636 48.5834C94.2636 70.5366 76.4589 88.3334 54.4961 88.3334C32.5333 88.3334 14.7287 70.5366 14.7287 48.5834C14.7287 26.6301 32.5333 8.83337 54.4961 8.83337C76.4589 8.83337 94.2636 26.6301 94.2636 48.5834Z" fill="white" fill-opacity="0.4" stroke="#11232A" stroke-width="5"/>
<path d="M165.927 141.333V108.356H172.243L186.288 131.628H182.942L196.752 108.356H203.02L203.114 141.333H195.95L195.903 119.332H197.223L186.194 137.847H182.753L171.489 119.332H173.091V141.333H165.927ZM226.189 141.899C221.507 141.899 217.847 140.595 215.208 137.988C212.568 135.382 211.248 131.66 211.248 126.823V108.356H218.884V126.541C218.884 129.681 219.528 131.943 220.816 133.324C222.104 134.706 223.911 135.397 226.236 135.397C228.561 135.397 230.368 134.706 231.657 133.324C232.945 131.943 233.589 129.681 233.589 126.541V108.356H241.13V126.823C241.13 131.66 239.81 135.382 237.171 137.988C234.532 140.595 230.871 141.899 226.189 141.899ZM249.264 141.333V108.356H256.899V135.115H273.443V141.333H249.264ZM282.048 141.333V114.574H271.491V108.356H300.241V114.574H289.684V141.333H282.048ZM304.94 141.333V108.356H312.575V141.333H304.94ZM320.994 141.333V108.356H327.31L341.355 131.628H338.009L351.818 108.356H358.087L358.181 141.333H351.017L350.97 119.332H352.289L341.261 137.847H337.82L326.555 119.332H328.158V141.333H320.994ZM373.62 121.641H389.503V127.577H373.62V121.641ZM374.185 135.209H392.142V141.333H366.597V108.356H391.53V114.48H374.185V135.209ZM398.806 141.333V108.356H413.793C417.375 108.356 420.533 109.047 423.267 110.429C426.001 111.779 428.139 113.679 429.677 116.129C431.217 118.579 431.986 121.484 431.986 124.845C431.986 128.174 431.217 131.079 429.677 133.56C428.139 136.01 426.001 137.926 423.267 139.308C420.533 140.658 417.375 141.333 413.793 141.333H398.806ZM406.441 135.068H413.416C415.617 135.068 417.517 134.659 419.119 133.843C420.754 132.995 422.012 131.801 422.89 130.262C423.803 128.723 424.257 126.917 424.257 124.845C424.257 122.74 423.803 120.934 422.89 119.427C422.012 117.888 420.754 116.71 419.119 115.893C417.517 115.045 415.617 114.621 413.416 114.621H406.441V135.068ZM438.334 141.333V108.356H445.97V141.333H438.334ZM461.411 121.641H477.295V127.577H461.411V121.641ZM461.977 135.209H479.934V141.333H454.389V108.356H479.321V114.48H461.977V135.209ZM486.597 141.333V108.356H501.585C505.167 108.356 508.325 109.047 511.059 110.429C513.792 111.779 515.931 113.679 517.469 116.129C519.009 118.579 519.778 121.484 519.778 124.845C519.778 128.174 519.009 131.079 517.469 133.56C515.931 136.01 513.792 137.926 511.059 139.308C508.325 140.658 505.167 141.333 501.585 141.333H486.597ZM494.233 135.068H501.208C503.409 135.068 505.309 134.659 506.911 133.843C508.546 132.995 509.804 131.801 510.682 130.262C511.595 128.723 512.048 126.917 512.048 124.845C512.048 122.74 511.595 120.934 510.682 119.427C509.804 117.888 508.546 116.71 506.911 115.893C505.309 115.045 503.409 114.621 501.208 114.621H494.233V135.068ZM533.149 121.641H549.032V127.577H533.149V121.641ZM533.714 135.209H551.672V141.333H526.126V108.356H551.059V114.48H533.714V135.209ZM569.175 141.899C566.536 141.899 564.008 141.553 561.587 140.862C559.168 140.14 557.221 139.213 555.743 138.083L558.335 132.335C559.749 133.34 561.416 134.172 563.331 134.832C565.281 135.46 567.243 135.774 569.222 135.774C570.73 135.774 571.941 135.633 572.851 135.35C573.794 135.036 574.486 134.612 574.925 134.078C575.367 133.544 575.585 132.932 575.585 132.241C575.585 131.361 575.24 130.671 574.548 130.168C573.859 129.634 572.946 129.21 571.815 128.896C570.683 128.551 569.428 128.237 568.044 127.954C566.695 127.64 565.328 127.263 563.944 126.823C562.594 126.384 561.351 125.818 560.22 125.127C559.089 124.436 558.164 123.525 557.439 122.395C556.75 121.264 556.402 119.819 556.402 118.061C556.402 116.176 556.906 114.464 557.911 112.925C558.948 111.355 560.488 110.114 562.53 109.204C564.603 108.261 567.196 107.79 570.306 107.79C572.38 107.79 574.424 108.041 576.433 108.544C578.445 109.015 580.222 109.737 581.759 110.711L579.403 116.506C577.865 115.626 576.324 114.983 574.784 114.574C573.246 114.135 571.738 113.915 570.259 113.915C568.783 113.915 567.573 114.088 566.63 114.433C565.687 114.778 565.013 115.234 564.603 115.799C564.197 116.333 563.991 116.961 563.991 117.684C563.991 118.532 564.338 119.223 565.028 119.757C565.72 120.259 566.63 120.667 567.761 120.981C568.892 121.296 570.135 121.609 571.485 121.924C572.869 122.238 574.236 122.599 575.585 123.007C576.97 123.416 578.224 123.965 579.356 124.656C580.487 125.347 581.4 126.258 582.089 127.389C582.814 128.519 583.173 129.948 583.173 131.676C583.173 133.529 582.655 135.225 581.618 136.764C580.581 138.303 579.026 139.543 576.952 140.485C574.911 141.428 572.318 141.899 569.175 141.899ZM588.982 141.333V108.356H596.618V141.333H588.982ZM620.967 141.899C618.357 141.899 615.953 141.49 613.756 140.674C611.588 139.826 609.685 138.632 608.053 137.093C606.451 135.554 605.193 133.749 604.282 131.676C603.402 129.603 602.963 127.326 602.963 124.845C602.963 122.363 603.402 120.086 604.282 118.013C605.193 115.941 606.465 114.135 608.1 112.596C609.732 111.057 611.65 109.879 613.85 109.062C616.048 108.214 618.469 107.79 621.109 107.79C624.031 107.79 626.652 108.277 628.98 109.251C631.336 110.224 633.316 111.638 634.918 113.491L630.016 118.013C628.82 116.757 627.518 115.831 626.104 115.234C624.691 114.606 623.15 114.292 621.486 114.292C619.883 114.292 618.422 114.543 617.102 115.045C615.783 115.548 614.634 116.27 613.662 117.212C612.719 118.155 611.98 119.27 611.447 120.557C610.943 121.845 610.692 123.274 610.692 124.845C610.692 126.384 610.943 127.797 611.447 129.085C611.98 130.372 612.719 131.503 613.662 132.477C614.634 133.419 615.765 134.141 617.055 134.644C618.375 135.146 619.818 135.397 621.391 135.397C622.9 135.397 624.361 135.162 625.775 134.691C627.218 134.188 628.617 133.356 629.969 132.194L634.305 137.706C632.514 139.056 630.423 140.093 628.037 140.815C625.68 141.537 623.324 141.899 620.967 141.899ZM627.33 136.716V124.326H634.305V137.706L627.33 136.716ZM641.985 141.333V108.356H648.301L667.766 132.1H664.702V108.356H672.244V141.333H665.975L646.462 117.589H649.526V141.333H641.985ZM687.662 121.641H703.545V127.577H687.662V121.641ZM688.227 135.209H706.184V141.333H680.639V108.356H705.572V114.48H688.227V135.209ZM712.851 141.333V108.356H727.131C730.083 108.356 732.628 108.842 734.767 109.816C736.902 110.758 738.552 112.124 739.716 113.915C740.876 115.705 741.459 117.841 741.459 120.322C741.459 122.772 740.876 124.892 739.716 126.682C738.552 128.441 736.902 129.791 734.767 130.733C732.628 131.676 730.083 132.147 727.131 132.147H717.092L720.486 128.802V141.333H712.851ZM733.824 141.333L725.576 129.367H733.73L742.072 141.333H733.824ZM720.486 129.65L717.092 126.069H726.707C729.064 126.069 730.822 125.567 731.986 124.562C733.147 123.525 733.73 122.112 733.73 120.322C733.73 118.5 733.147 117.087 731.986 116.082C730.822 115.077 729.064 114.574 726.707 114.574H717.092L720.486 110.947V129.65Z" fill="#11232A"/>
</svg>
