<svg width="41" height="51" viewBox="0 0 41 51" fill="none" xmlns="http://www.w3.org/2000/svg">
<rect x="4" y="1" width="36.4994" height="49.3235" rx="1" fill="#E7E9EA"/>
<path d="M36.5216 8H27.4328C27.1731 8 27 7.6 27 7C27 6.4 27.1731 6 27.4328 6H36.5216C36.7813 6 36.9544 6.4 36.9544 7C36.9544 7.6 36.7813 8 36.5216 8Z" fill="#A6A6A6"/>
<path d="M36.6545 13.2637H28.4371C28.2023 13.2637 28.0458 12.8637 28.0458 12.2637C28.0458 11.6637 28.2023 11.2637 28.4371 11.2637H36.6545C36.8893 11.2637 37.0458 11.6637 37.0458 12.2637C37.0458 12.8637 36.8893 13.2637 36.6545 13.2637Z" fill="#A6A6A6"/>
<path d="M39.5675 21.2637H29.524C29.2371 21.2637 29.0458 20.8637 29.0458 20.2637C29.0458 19.6637 29.2371 19.2637 29.524 19.2637H39.5675C39.8545 19.2637 40.0458 19.6637 40.0458 20.2637C40.0458 20.8637 39.8545 21.2637 39.5675 21.2637Z" fill="#A6A6A6"/>
<path d="M33.6545 26.2637H25.4371C25.2023 26.2637 25.0458 25.8637 25.0458 25.2637C25.0458 24.6637 25.2023 24.2637 25.4371 24.2637H33.6545C33.8893 24.2637 34.0458 24.6637 34.0458 25.2637C34.0458 25.8637 33.8893 26.2637 33.6545 26.2637Z" fill="#A6A6A6"/>
<path d="M38.0236 32.2637H12.272C11.5363 32.2637 11.0458 31.8637 11.0458 31.2637C11.0458 30.6637 11.5363 30.2637 12.272 30.2637H38.0236C38.7594 30.2637 39.2499 30.6637 39.2499 31.2637C39.2499 31.8637 38.7594 32.2637 38.0236 32.2637Z" fill="#A6A6A6"/>
<path d="M28.502 38.2637H11.8392C11.3632 38.2637 11.0458 37.8637 11.0458 37.2637C11.0458 36.6637 11.3632 36.2637 11.8392 36.2637H28.502C28.9781 36.2637 29.2955 36.6637 29.2955 37.2637C29.2955 37.8637 28.9781 38.2637 28.502 38.2637Z" fill="#A6A6A6"/>
<path d="M36.4367 44.2637H12.1999C11.5074 44.2637 11.0458 43.8637 11.0458 43.2637C11.0458 42.6637 11.5074 42.2637 12.1999 42.2637H36.4367C37.1292 42.2637 37.5908 42.6637 37.5908 43.2637C37.5908 43.8637 37.1292 44.2637 36.4367 44.2637Z" fill="#A6A6A6"/>
<path d="M15.2958 14.5137C16.5461 14.5137 17.7452 14.0001 18.6293 13.0858C19.5134 12.1716 20.0101 10.9316 20.0101 9.63867C20.0101 8.34574 19.5134 7.10577 18.6293 6.19153C17.7452 5.27729 16.5461 4.76367 15.2958 4.76367C14.0455 4.76367 12.8464 5.27729 11.9623 6.19153C11.0782 7.10577 10.5815 8.34574 10.5815 9.63867C10.5815 10.9316 11.0782 12.1716 11.9623 13.0858C12.8464 14.0001 14.0455 14.5137 15.2958 14.5137ZM13.6126 16.3418C9.98484 16.3418 7.04578 19.3811 7.04578 23.1325C7.04578 23.7571 7.53562 24.2637 8.13964 24.2637H22.4519C23.0559 24.2637 23.5458 23.7571 23.5458 23.1325C23.5458 19.3811 20.6067 16.3418 16.9789 16.3418H13.6126Z" fill="#DA6623"/>
<path d="M28.7997 46.1317C29.5831 47.5916 31.4017 48.1401 32.8616 47.3567C34.3215 46.5733 34.87 44.7547 34.0866 43.2947L28.7997 46.1317ZM19.3565 28.5335L28.7997 46.1317L34.0866 43.2947L24.6434 25.6966L19.3565 28.5335Z" fill="#707B7F"/>
<path d="M29 15C29 22.732 22.732 29 15 29C7.26801 29 1 22.732 1 15C1 7.26801 7.26801 1 15 1C22.732 1 29 7.26801 29 15Z" fill="white" fill-opacity="0.4" stroke="#707B7F" stroke-width="2"/>
</svg>
