<svg width="251" height="250" viewBox="0 0 251 250" fill="none" xmlns="http://www.w3.org/2000/svg">
<path d="M245.612 61.4832C237.18 47.324 222.996 36.7032 207.603 31.3152C200.468 28.8696 193.181 27.3047 185.614 27.3542C178.512 27.3332 171.08 29.2202 164.331 31.5278C161.116 32.6336 157.997 34.0585 155.025 35.5087C151.217 37.4189 147.409 39.3291 143.844 41.5836C137.032 45.9968 131.92 52.8207 128.128 59.8735C124.113 67.3412 121.489 75.5035 119.625 83.6461C117.608 92.6693 116.249 102.26 116.459 111.518C116.765 121.095 119.789 130.689 126.946 137.371C133.202 143.141 141.906 145.254 149.982 142.269C157.248 139.598 163.139 133.513 166.44 126.678C170.015 119.134 170.118 110.686 167.401 102.808C161.655 86.2417 145.153 74.1613 129.199 68.5248C120.941 65.5822 111.841 64.0057 103.018 65.1981C93.5564 66.5823 85.3478 71.2069 78.8378 78.2423C71.9326 85.8139 66.8533 95.0623 61.997 103.896C56.7201 113.413 51.858 123.152 47.7043 133.166C39.2757 153.021 32.8 173.819 28.379 194.973C27.3169 200.231 26.4269 205.367 25.6582 210.676C24.9913 215.398 32.3296 216.67 32.9966 211.948C38.9816 172.168 52.7452 133.737 73.2427 99.1928C77.7234 91.6547 82.5993 83.5803 89.7101 78.312C95.9599 73.6503 103.685 71.8142 111.323 72.2304C119.401 72.7229 127.295 75.1489 134.373 78.794C141.184 82.2415 147.79 86.863 152.822 92.7234C157.732 98.4117 161.386 105.243 161.876 112.886C162.301 119.158 159.37 125.604 155.079 130.303C150.839 134.708 145.092 137.34 139.272 136.03C132.01 134.318 127.328 127.309 125.34 120.464C122.776 111.705 124.333 101.846 125.565 92.9896C126.664 85.7727 128.522 78.5361 131.089 71.5734C133.778 64.7829 137.2 58.1196 142.23 52.6419C147.063 47.4324 153.793 44.3655 160.082 41.2223C166.027 38.3218 172.38 36.5504 178.926 35.4169C185.031 34.2071 190.538 34.7077 196.677 35.9225C210.25 38.7276 223.621 46.1842 232.982 56.7251C235.51 59.5819 237.573 62.5092 239.585 65.7301C240.651 67.4266 243.172 67.7121 244.722 66.62C246.444 65.4067 246.678 63.1797 245.612 61.4832Z" fill="black"/>
<path d="M79.5498 154.405C68.9232 169.495 57.1029 183.623 44.3569 196.985C41.2262 200.222 37.9233 203.58 34.6712 206.645C33.415 207.788 32.0825 209.371 30.4368 210.144C29.2823 210.7 29.0396 210.355 28.4838 209.201C27.5639 207.53 26.963 205.763 26.3622 203.996C25.5186 201.884 24.8472 199.652 24.1759 197.419C22.7823 193.247 21.7077 188.979 20.8053 184.59C18.8594 174.88 17.8704 164.883 17.9088 155.063C17.9459 153.104 15.6543 151.498 13.7914 151.78C11.635 152.011 10.4238 153.766 10.5081 155.897C10.4951 165.57 11.3881 175.249 13.3594 184.812C14.3323 189.667 15.452 194.547 16.9161 199.184C18.2842 203.503 19.6015 208.115 21.6331 212.095C23.8818 216.567 28.1264 219.116 32.9871 217.237C37.3821 215.429 40.8376 211.19 44.1151 207.979C51.2375 200.898 58.1173 193.473 64.5822 185.825C71.8121 177.252 78.774 168.481 85.1996 159.314C86.3854 157.706 86.3265 155.428 84.7433 154.095C83.3323 152.642 80.5887 152.771 79.5498 154.405Z" fill="black"/>
</svg>
