<svg width="258" height="54" viewBox="0 0 258 54" fill="none" xmlns="http://www.w3.org/2000/svg">
<path fill-rule="evenodd" clip-rule="evenodd" d="M252 29.4002L54 29.4002V28L252 28V29.4002Z" fill="#11232A"/>
<path d="M64.24 21.472C62.912 21.472 61.68 21.264 60.544 20.848C59.424 20.416 58.448 19.808 57.616 19.024C56.8 18.24 56.16 17.32 55.696 16.264C55.232 15.192 55 14.016 55 12.736C55 11.456 55.232 10.288 55.696 9.232C56.16 8.16 56.8 7.232 57.616 6.448C58.448 5.664 59.424 5.064 60.544 4.648C61.68 4.216 62.912 4 64.24 4C65.792 4 67.176 4.272 68.392 4.816C69.624 5.36 70.648 6.144 71.464 7.168L68.44 9.904C67.896 9.264 67.296 8.776 66.64 8.44C66 8.104 65.28 7.936 64.48 7.936C63.792 7.936 63.16 8.048 62.584 8.272C62.008 8.496 61.512 8.824 61.096 9.256C60.696 9.672 60.376 10.176 60.136 10.768C59.912 11.36 59.8 12.016 59.8 12.736C59.8 13.456 59.912 14.112 60.136 14.704C60.376 15.296 60.696 15.808 61.096 16.24C61.512 16.656 62.008 16.976 62.584 17.2C63.16 17.424 63.792 17.536 64.48 17.536C65.28 17.536 66 17.368 66.64 17.032C67.296 16.696 67.896 16.208 68.44 15.568L71.464 18.304C70.648 19.312 69.624 20.096 68.392 20.656C67.176 21.2 65.792 21.472 64.24 21.472ZM72.8508 21.136L78.4128 8.536H81.9228L87.5028 21.136H83.7948L79.4388 10.282H80.8428L76.4868 21.136H72.8508ZM75.8928 18.688L76.8108 16.06H82.9668L83.8848 18.688H75.8928ZM89.7131 21.136V8.536H92.6471L97.8671 17.104H96.3191L101.395 8.536H104.329L104.365 21.136H101.089L101.053 13.522H101.611L97.8131 19.894H96.2291L92.3231 13.522H93.0071V21.136H89.7131ZM108.087 21.136V8.536H111.651V21.136H108.087ZM115.387 21.136V8.536H118.951V18.31H124.963V21.136H115.387ZM127.573 21.136V8.536H131.137V18.31H137.149V21.136H127.573ZM138.37 21.136L143.932 8.536H147.442L153.022 21.136H149.314L144.958 10.282H146.362L142.006 21.136H138.37ZM141.412 18.688L142.33 16.06H148.486L149.404 18.688H141.412ZM164.785 21.136L160.699 8.536H164.371L167.809 19.444H165.955L169.573 8.536H172.849L176.269 19.444H174.487L178.033 8.536H181.435L177.349 21.136H173.533L170.617 11.866H171.643L168.601 21.136H164.785ZM187.188 13.414H193.038V16.078H187.188V13.414ZM187.44 18.382H194.028V21.136H183.912V8.536H193.794V11.29H187.44V18.382ZM197.206 21.136V8.536H202.966C204.118 8.536 205.108 8.722 205.936 9.094C206.776 9.466 207.424 10.006 207.88 10.714C208.336 11.41 208.564 12.238 208.564 13.198C208.564 14.146 208.336 14.968 207.88 15.664C207.424 16.348 206.776 16.876 205.936 17.248C205.108 17.608 204.118 17.788 202.966 17.788H199.186L200.77 16.294V21.136H197.206ZM205 21.136L201.868 16.546H205.666L208.816 21.136H205ZM200.77 16.672L199.186 15.034H202.75C203.494 15.034 204.046 14.872 204.406 14.548C204.778 14.224 204.964 13.774 204.964 13.198C204.964 12.61 204.778 12.154 204.406 11.83C204.046 11.506 203.494 11.344 202.75 11.344H199.186L200.77 9.706V16.672ZM211.73 21.136V8.536H214.664L221.612 16.924H220.226V8.536H223.718V21.136H220.784L213.836 12.748H215.222V21.136H211.73ZM230.708 13.414H236.558V16.078H230.708V13.414ZM230.96 18.382H237.548V21.136H227.432V8.536H237.314V11.29H230.96V18.382ZM240.726 21.136V8.536H246.486C247.638 8.536 248.628 8.722 249.456 9.094C250.296 9.466 250.944 10.006 251.4 10.714C251.856 11.41 252.084 12.238 252.084 13.198C252.084 14.146 251.856 14.968 251.4 15.664C250.944 16.348 250.296 16.876 249.456 17.248C248.628 17.608 247.638 17.788 246.486 17.788H242.706L244.29 16.294V21.136H240.726ZM248.52 21.136L245.388 16.546H249.186L252.336 21.136H248.52ZM244.29 16.672L242.706 15.034H246.27C247.014 15.034 247.566 14.872 247.926 14.548C248.298 14.224 248.484 13.774 248.484 13.198C248.484 12.61 248.298 12.154 247.926 11.83C247.566 11.506 247.014 11.344 246.27 11.344H242.706L244.29 9.706V16.672Z" fill="#11232A"/>
<rect x="6.95422" y="1.73633" width="36.4994" height="49.3235" rx="1" fill="white"/>
<path d="M37.5216 9H28.4328C28.1731 9 28 8.6 28 8C28 7.4 28.1731 7 28.4328 7H37.5216C37.7813 7 37.9544 7.4 37.9544 8C37.9544 8.6 37.7813 9 37.5216 9Z" fill="#A6A6A6"/>
<path d="M39.6087 14H31.3913C31.1565 14 31 13.6 31 13C31 12.4 31.1565 12 31.3913 12H39.6087C39.8435 12 40 12.4 40 13C40 13.6 39.8435 14 39.6087 14Z" fill="#A6A6A6"/>
<path d="M42.5217 22H32.4783C32.1913 22 32 21.6 32 21C32 20.4 32.1913 20 32.4783 20H42.5217C42.8087 20 43 20.4 43 21C43 21.6 42.8087 22 42.5217 22Z" fill="#A6A6A6"/>
<path d="M36.6087 27H28.3913C28.1565 27 28 26.6 28 26C28 25.4 28.1565 25 28.3913 25H36.6087C36.8435 25 37 25.4 37 26C37 26.6 36.8435 27 36.6087 27Z" fill="#A6A6A6"/>
<path d="M40.9778 33H15.2263C14.4905 33 14 32.6 14 32C14 31.4 14.4905 31 15.2263 31H40.9778C41.7136 31 42.2041 31.4 42.2041 32C42.2041 32.6 41.7136 33 40.9778 33Z" fill="#A6A6A6"/>
<path d="M31.4562 39H14.7935C14.3174 39 14 38.6 14 38C14 37.4 14.3174 37 14.7935 37H31.4562C31.9323 37 32.2497 37.4 32.2497 38C32.2497 38.6 31.9323 39 31.4562 39Z" fill="#A6A6A6"/>
<path d="M39.3909 45H15.1541C14.4617 45 14 44.6 14 44C14 43.4 14.4617 43 15.1541 43H39.3909C40.0834 43 40.545 43.4 40.545 44C40.545 44.6 40.0834 45 39.3909 45Z" fill="#A6A6A6"/>
<path d="M18.25 15.25C19.5003 15.25 20.6994 14.7364 21.5835 13.8221C22.4676 12.9079 22.9643 11.6679 22.9643 10.375C22.9643 9.08207 22.4676 7.84209 21.5835 6.92785C20.6994 6.01361 19.5003 5.5 18.25 5.5C16.9997 5.5 15.8006 6.01361 14.9165 6.92785C14.0324 7.84209 13.5357 9.08207 13.5357 10.375C13.5357 11.6679 14.0324 12.9079 14.9165 13.8221C15.8006 14.7364 16.9997 15.25 18.25 15.25ZM16.5669 17.0781C12.9391 17.0781 10 20.1174 10 23.8688C10 24.4935 10.4898 25 11.0939 25H25.4061C26.0102 25 26.5 24.4935 26.5 23.8688C26.5 20.1174 23.5609 17.0781 19.9331 17.0781H16.5669Z" fill="#DA6623"/>
<path d="M35.8485 52.1675C36.3681 53.1422 37.5795 53.5113 38.5542 52.9917C39.529 52.4722 39.898 51.2608 39.3784 50.2861L35.8485 52.1675ZM23.7351 29.4405L35.8485 52.1675L39.3784 50.2861L27.265 27.5591L23.7351 29.4405Z" fill="#11232A"/>
<path d="M32 16.5C32 23.9558 25.9558 30 18.5 30C11.0442 30 5 23.9558 5 16.5C5 9.04416 11.0442 3 18.5 3C25.9558 3 32 9.04416 32 16.5Z" stroke="#11232A" stroke-width="2"/>
<path d="M56.328 48V36.8H58.472L63.24 44.704H62.104L66.792 36.8H68.92L68.952 48H66.52L66.504 40.528H66.952L63.208 46.816H62.04L58.216 40.528H58.76V48H56.328ZM76.7853 48.192C75.1959 48.192 73.9532 47.7493 73.0573 46.864C72.1612 45.9787 71.7132 44.7147 71.7132 43.072V36.8H74.3052V42.976C74.3052 44.0427 74.5239 44.8107 74.9612 45.28C75.3986 45.7493 76.0119 45.984 76.8012 45.984C77.5906 45.984 78.2039 45.7493 78.6413 45.28C79.0786 44.8107 79.2972 44.0427 79.2972 42.976V36.8H81.8573V43.072C81.8573 44.7147 81.4093 45.9787 80.5133 46.864C79.6173 47.7493 78.3746 48.192 76.7853 48.192ZM84.6186 48V36.8H87.2106V45.888H92.8266V48H84.6186ZM95.748 48V38.912H92.164V36.8H101.924V38.912H98.34V48H95.748ZM103.519 48V36.8H106.111V48H103.519ZM108.969 48V36.8H111.113L115.881 44.704H114.745L119.433 36.8H121.561L121.593 48H119.161L119.145 40.528H119.593L115.849 46.816H114.681L110.857 40.528H111.401V48H108.969ZM126.834 41.312H132.226V43.328H126.834V41.312ZM127.026 45.92H133.122V48H124.45V36.8H132.914V38.88H127.026V45.92ZM135.384 48V36.8H140.472C141.688 36.8 142.76 37.0347 143.688 37.504C144.616 37.9627 145.342 38.608 145.864 39.44C146.387 40.272 146.648 41.2587 146.648 42.4C146.648 43.5307 146.387 44.5173 145.864 45.36C145.342 46.192 144.616 46.8427 143.688 47.312C142.76 47.7707 141.688 48 140.472 48H135.384ZM137.976 45.872H140.344C141.091 45.872 141.736 45.7333 142.28 45.456C142.835 45.168 143.262 44.7627 143.56 44.24C143.87 43.7173 144.024 43.104 144.024 42.4C144.024 41.6853 143.87 41.072 143.56 40.56C143.262 40.0373 142.835 39.6373 142.28 39.36C141.736 39.072 141.091 38.928 140.344 38.928H137.976V45.872ZM148.803 48V36.8H151.395V48H148.803ZM156.637 41.312H162.029V43.328H156.637V41.312ZM156.829 45.92H162.925V48H154.253V36.8H162.717V38.88H156.829V45.92ZM165.187 48V36.8H170.275C171.491 36.8 172.563 37.0347 173.491 37.504C174.419 37.9627 175.145 38.608 175.667 39.44C176.19 40.272 176.451 41.2587 176.451 42.4C176.451 43.5307 176.19 44.5173 175.667 45.36C175.145 46.192 174.419 46.8427 173.491 47.312C172.563 47.7707 171.491 48 170.275 48H165.187ZM167.779 45.872H170.147C170.894 45.872 171.539 45.7333 172.083 45.456C172.638 45.168 173.065 44.7627 173.363 44.24C173.673 43.7173 173.827 43.104 173.827 42.4C173.827 41.6853 173.673 41.072 173.363 40.56C173.065 40.0373 172.638 39.6373 172.083 39.36C171.539 39.072 170.894 38.928 170.147 38.928H167.779V45.872ZM180.99 41.312H186.382V43.328H180.99V41.312ZM181.182 45.92H187.278V48H178.606V36.8H187.07V38.88H181.182V45.92ZM193.22 48.192C192.324 48.192 191.466 48.0747 190.644 47.84C189.823 47.5947 189.162 47.28 188.66 46.896L189.54 44.944C190.02 45.2853 190.586 45.568 191.236 45.792C191.898 46.0053 192.564 46.112 193.236 46.112C193.748 46.112 194.159 46.064 194.468 45.968C194.788 45.8613 195.023 45.7173 195.172 45.536C195.322 45.3547 195.396 45.1467 195.396 44.912C195.396 44.6133 195.279 44.3787 195.044 44.208C194.81 44.0267 194.5 43.8827 194.116 43.776C193.732 43.6587 193.306 43.552 192.836 43.456C192.378 43.3493 191.914 43.2213 191.444 43.072C190.986 42.9227 190.564 42.7307 190.18 42.496C189.796 42.2613 189.482 41.952 189.236 41.568C189.002 41.184 188.884 40.6933 188.884 40.096C188.884 39.456 189.055 38.8747 189.396 38.352C189.748 37.8187 190.271 37.3973 190.964 37.088C191.668 36.768 192.548 36.608 193.604 36.608C194.308 36.608 195.002 36.6933 195.684 36.864C196.367 37.024 196.97 37.2693 197.492 37.6L196.692 39.568C196.17 39.2693 195.647 39.0507 195.124 38.912C194.602 38.7627 194.09 38.688 193.588 38.688C193.087 38.688 192.676 38.7467 192.356 38.864C192.036 38.9813 191.807 39.136 191.668 39.328C191.53 39.5093 191.46 39.7227 191.46 39.968C191.46 40.256 191.578 40.4907 191.812 40.672C192.047 40.8427 192.356 40.9813 192.74 41.088C193.124 41.1947 193.546 41.3013 194.004 41.408C194.474 41.5147 194.938 41.6373 195.396 41.776C195.866 41.9147 196.292 42.1013 196.676 42.336C197.06 42.5707 197.37 42.88 197.604 43.264C197.85 43.648 197.972 44.1333 197.972 44.72C197.972 45.3493 197.796 45.9253 197.444 46.448C197.092 46.9707 196.564 47.392 195.86 47.712C195.167 48.032 194.287 48.192 193.22 48.192ZM199.944 48V36.8H202.536V48H199.944ZM210.802 48.192C209.916 48.192 209.1 48.0533 208.354 47.776C207.618 47.488 206.972 47.0827 206.418 46.56C205.874 46.0373 205.447 45.424 205.138 44.72C204.839 44.016 204.69 43.2427 204.69 42.4C204.69 41.5573 204.839 40.784 205.138 40.08C205.447 39.376 205.879 38.7627 206.434 38.24C206.988 37.7173 207.639 37.3173 208.386 37.04C209.132 36.752 209.954 36.608 210.85 36.608C211.842 36.608 212.732 36.7733 213.522 37.104C214.322 37.4347 214.994 37.9147 215.538 38.544L213.874 40.08C213.468 39.6533 213.026 39.3387 212.546 39.136C212.066 38.9227 211.543 38.816 210.978 38.816C210.434 38.816 209.938 38.9013 209.49 39.072C209.042 39.2427 208.652 39.488 208.322 39.808C208.002 40.128 207.751 40.5067 207.57 40.944C207.399 41.3813 207.314 41.8667 207.314 42.4C207.314 42.9227 207.399 43.4027 207.57 43.84C207.751 44.2773 208.002 44.6613 208.322 44.992C208.652 45.312 209.036 45.5573 209.474 45.728C209.922 45.8987 210.412 45.984 210.946 45.984C211.458 45.984 211.954 45.904 212.434 45.744C212.924 45.5733 213.399 45.2907 213.858 44.896L215.33 46.768C214.722 47.2267 214.012 47.5787 213.202 47.824C212.402 48.0693 211.602 48.192 210.802 48.192ZM212.962 46.432V42.224H215.33V46.768L212.962 46.432ZM217.937 48V36.8H220.081L226.689 44.864H225.649V36.8H228.209V48H226.081L219.457 39.936H220.497V48H217.937ZM233.443 41.312H238.835V43.328H233.443V41.312ZM233.635 45.92H239.731V48H231.059V36.8H239.523V38.88H233.635V45.92ZM241.994 48V36.8H246.842C247.844 36.8 248.708 36.9653 249.434 37.296C250.159 37.616 250.719 38.08 251.114 38.688C251.508 39.296 251.706 40.0213 251.706 40.864C251.706 41.696 251.508 42.416 251.114 43.024C250.719 43.6213 250.159 44.08 249.434 44.4C248.708 44.72 247.844 44.88 246.842 44.88H243.434L244.586 43.744V48H241.994ZM249.114 48L246.314 43.936H249.082L251.914 48H249.114ZM244.586 44.032L243.434 42.816H246.698C247.498 42.816 248.095 42.6453 248.49 42.304C248.884 41.952 249.082 41.472 249.082 40.864C249.082 40.2453 248.884 39.7653 248.49 39.424C248.095 39.0827 247.498 38.912 246.698 38.912H243.434L244.586 37.68V44.032Z" fill="#11232A"/>
</svg>
