<svg width="250" height="53" viewBox="0 0 250 53" fill="none" xmlns="http://www.w3.org/2000/svg">
<path d="M53.328 47V35.8H55.472L60.24 43.704H59.104L63.792 35.8H65.92L65.952 47H63.52L63.504 39.528H63.952L60.208 45.816H59.04L55.216 39.528H55.76V47H53.328ZM73.7853 47.192C72.1959 47.192 70.9532 46.7493 70.0573 45.864C69.1612 44.9787 68.7132 43.7147 68.7132 42.072V35.8H71.3052V41.976C71.3052 43.0427 71.5239 43.8107 71.9612 44.28C72.3986 44.7493 73.0119 44.984 73.8012 44.984C74.5906 44.984 75.2039 44.7493 75.6413 44.28C76.0786 43.8107 76.2972 43.0427 76.2972 41.976V35.8H78.8573V42.072C78.8573 43.7147 78.4093 44.9787 77.5133 45.864C76.6173 46.7493 75.3746 47.192 73.7853 47.192ZM81.6186 47V35.8H84.2106V44.888H89.8266V47H81.6186ZM92.748 47V37.912H89.164V35.8H98.924V37.912H95.34V47H92.748ZM100.519 47V35.8H103.111V47H100.519ZM105.969 47V35.8H108.113L112.881 43.704H111.745L116.433 35.8H118.561L118.593 47H116.161L116.145 39.528H116.593L112.849 45.816H111.681L107.857 39.528H108.401V47H105.969ZM123.834 40.312H129.226V42.328H123.834V40.312ZM124.026 44.92H130.122V47H121.45V35.8H129.914V37.88H124.026V44.92ZM132.384 47V35.8H137.472C138.688 35.8 139.76 36.0347 140.688 36.504C141.616 36.9627 142.342 37.608 142.864 38.44C143.387 39.272 143.648 40.2587 143.648 41.4C143.648 42.5307 143.387 43.5173 142.864 44.36C142.342 45.192 141.616 45.8427 140.688 46.312C139.76 46.7707 138.688 47 137.472 47H132.384ZM134.976 44.872H137.344C138.091 44.872 138.736 44.7333 139.28 44.456C139.835 44.168 140.262 43.7627 140.56 43.24C140.87 42.7173 141.024 42.104 141.024 41.4C141.024 40.6853 140.87 40.072 140.56 39.56C140.262 39.0373 139.835 38.6373 139.28 38.36C138.736 38.072 138.091 37.928 137.344 37.928H134.976V44.872ZM145.803 47V35.8H148.395V47H145.803ZM153.637 40.312H159.029V42.328H153.637V40.312ZM153.829 44.92H159.925V47H151.253V35.8H159.717V37.88H153.829V44.92ZM162.187 47V35.8H167.275C168.491 35.8 169.563 36.0347 170.491 36.504C171.419 36.9627 172.145 37.608 172.667 38.44C173.19 39.272 173.451 40.2587 173.451 41.4C173.451 42.5307 173.19 43.5173 172.667 44.36C172.145 45.192 171.419 45.8427 170.491 46.312C169.563 46.7707 168.491 47 167.275 47H162.187ZM164.779 44.872H167.147C167.894 44.872 168.539 44.7333 169.083 44.456C169.638 44.168 170.065 43.7627 170.363 43.24C170.673 42.7173 170.827 42.104 170.827 41.4C170.827 40.6853 170.673 40.072 170.363 39.56C170.065 39.0373 169.638 38.6373 169.083 38.36C168.539 38.072 167.894 37.928 167.147 37.928H164.779V44.872ZM177.99 40.312H183.382V42.328H177.99V40.312ZM178.182 44.92H184.278V47H175.606V35.8H184.07V37.88H178.182V44.92ZM190.22 47.192C189.324 47.192 188.466 47.0747 187.644 46.84C186.823 46.5947 186.162 46.28 185.66 45.896L186.54 43.944C187.02 44.2853 187.586 44.568 188.236 44.792C188.898 45.0053 189.564 45.112 190.236 45.112C190.748 45.112 191.159 45.064 191.468 44.968C191.788 44.8613 192.023 44.7173 192.172 44.536C192.322 44.3547 192.396 44.1467 192.396 43.912C192.396 43.6133 192.279 43.3787 192.044 43.208C191.81 43.0267 191.5 42.8827 191.116 42.776C190.732 42.6587 190.306 42.552 189.836 42.456C189.378 42.3493 188.914 42.2213 188.444 42.072C187.986 41.9227 187.564 41.7307 187.18 41.496C186.796 41.2613 186.482 40.952 186.236 40.568C186.002 40.184 185.884 39.6933 185.884 39.096C185.884 38.456 186.055 37.8747 186.396 37.352C186.748 36.8187 187.271 36.3973 187.964 36.088C188.668 35.768 189.548 35.608 190.604 35.608C191.308 35.608 192.002 35.6933 192.684 35.864C193.367 36.024 193.97 36.2693 194.492 36.6L193.692 38.568C193.17 38.2693 192.647 38.0507 192.124 37.912C191.602 37.7627 191.09 37.688 190.588 37.688C190.087 37.688 189.676 37.7467 189.356 37.864C189.036 37.9813 188.807 38.136 188.668 38.328C188.53 38.5093 188.46 38.7227 188.46 38.968C188.46 39.256 188.578 39.4907 188.812 39.672C189.047 39.8427 189.356 39.9813 189.74 40.088C190.124 40.1947 190.546 40.3013 191.004 40.408C191.474 40.5147 191.938 40.6373 192.396 40.776C192.866 40.9147 193.292 41.1013 193.676 41.336C194.06 41.5707 194.37 41.88 194.604 42.264C194.85 42.648 194.972 43.1333 194.972 43.72C194.972 44.3493 194.796 44.9253 194.444 45.448C194.092 45.9707 193.564 46.392 192.86 46.712C192.167 47.032 191.287 47.192 190.22 47.192ZM196.944 47V35.8H199.536V47H196.944ZM207.802 47.192C206.916 47.192 206.1 47.0533 205.354 46.776C204.618 46.488 203.972 46.0827 203.418 45.56C202.874 45.0373 202.447 44.424 202.138 43.72C201.839 43.016 201.69 42.2427 201.69 41.4C201.69 40.5573 201.839 39.784 202.138 39.08C202.447 38.376 202.879 37.7627 203.434 37.24C203.988 36.7173 204.639 36.3173 205.386 36.04C206.132 35.752 206.954 35.608 207.85 35.608C208.842 35.608 209.732 35.7733 210.522 36.104C211.322 36.4347 211.994 36.9147 212.538 37.544L210.874 39.08C210.468 38.6533 210.026 38.3387 209.546 38.136C209.066 37.9227 208.543 37.816 207.978 37.816C207.434 37.816 206.938 37.9013 206.49 38.072C206.042 38.2427 205.652 38.488 205.322 38.808C205.002 39.128 204.751 39.5067 204.57 39.944C204.399 40.3813 204.314 40.8667 204.314 41.4C204.314 41.9227 204.399 42.4027 204.57 42.84C204.751 43.2773 205.002 43.6613 205.322 43.992C205.652 44.312 206.036 44.5573 206.474 44.728C206.922 44.8987 207.412 44.984 207.946 44.984C208.458 44.984 208.954 44.904 209.434 44.744C209.924 44.5733 210.399 44.2907 210.858 43.896L212.33 45.768C211.722 46.2267 211.012 46.5787 210.202 46.824C209.402 47.0693 208.602 47.192 207.802 47.192ZM209.962 45.432V41.224H212.33V45.768L209.962 45.432ZM214.937 47V35.8H217.081L223.689 43.864H222.649V35.8H225.209V47H223.081L216.457 38.936H217.497V47H214.937ZM230.443 40.312H235.835V42.328H230.443V40.312ZM230.635 44.92H236.731V47H228.059V35.8H236.523V37.88H230.635V44.92ZM238.994 47V35.8H243.842C244.844 35.8 245.708 35.9653 246.434 36.296C247.159 36.616 247.719 37.08 248.114 37.688C248.508 38.296 248.706 39.0213 248.706 39.864C248.706 40.696 248.508 41.416 248.114 42.024C247.719 42.6213 247.159 43.08 246.434 43.4C245.708 43.72 244.844 43.88 243.842 43.88H240.434L241.586 42.744V47H238.994ZM246.114 47L243.314 42.936H246.082L248.914 47H246.114ZM241.586 43.032L240.434 41.816H243.698C244.498 41.816 245.095 41.6453 245.49 41.304C245.884 40.952 246.082 40.472 246.082 39.864C246.082 39.2453 245.884 38.7653 245.49 38.424C245.095 38.0827 244.498 37.912 243.698 37.912H240.434L241.586 36.68V43.032Z" fill="white"/>
<path fill-rule="evenodd" clip-rule="evenodd" d="M247.046 27.6639L49.0458 27.6639V26.2637L247.046 26.2637V27.6639Z" fill="white"/>
<path d="M59.2858 19.7357C57.9578 19.7357 56.7258 19.5277 55.5898 19.1117C54.4698 18.6797 53.4938 18.0717 52.6618 17.2877C51.8458 16.5037 51.2058 15.5837 50.7418 14.5277C50.2778 13.4557 50.0458 12.2797 50.0458 10.9997C50.0458 9.71967 50.2778 8.55167 50.7418 7.49567C51.2058 6.42367 51.8458 5.49567 52.6618 4.71167C53.4938 3.92767 54.4698 3.32767 55.5898 2.91167C56.7258 2.47967 57.9578 2.26367 59.2858 2.26367C60.8378 2.26367 62.2218 2.53567 63.4378 3.07967C64.6698 3.62367 65.6938 4.40767 66.5098 5.43167L63.4858 8.16767C62.9418 7.52767 62.3418 7.03967 61.6858 6.70367C61.0458 6.36767 60.3258 6.19967 59.5258 6.19967C58.8378 6.19967 58.2058 6.31167 57.6298 6.53567C57.0538 6.75967 56.5578 7.08767 56.1418 7.51967C55.7418 7.93567 55.4218 8.43967 55.1818 9.03167C54.9578 9.62367 54.8458 10.2797 54.8458 10.9997C54.8458 11.7197 54.9578 12.3757 55.1818 12.9677C55.4218 13.5597 55.7418 14.0717 56.1418 14.5037C56.5578 14.9197 57.0538 15.2397 57.6298 15.4637C58.2058 15.6877 58.8378 15.7997 59.5258 15.7997C60.3258 15.7997 61.0458 15.6317 61.6858 15.2957C62.3418 14.9597 62.9418 14.4717 63.4858 13.8317L66.5098 16.5677C65.6938 17.5757 64.6698 18.3597 63.4378 18.9197C62.2218 19.4637 60.8378 19.7357 59.2858 19.7357ZM67.8965 19.3997L73.4585 6.79967H76.9685L82.5485 19.3997H78.8405L74.4845 8.54567H75.8885L71.5325 19.3997H67.8965ZM70.9385 16.9517L71.8565 14.3237H78.0125L78.9305 16.9517H70.9385ZM84.7589 19.3997V6.79967H87.6929L92.9129 15.3677H91.3649L96.4409 6.79967H99.3749L99.4109 19.3997H96.1349L96.0989 11.7857H96.6569L92.8589 18.1577H91.2749L87.3689 11.7857H88.0529V19.3997H84.7589ZM103.133 19.3997V6.79967H106.697V19.3997H103.133ZM110.432 19.3997V6.79967H113.996V16.5737H120.008V19.3997H110.432ZM122.619 19.3997V6.79967H126.183V16.5737H132.195V19.3997H122.619ZM133.416 19.3997L138.978 6.79967H142.488L148.068 19.3997H144.36L140.004 8.54567H141.408L137.052 19.3997H133.416ZM136.458 16.9517L137.376 14.3237H143.532L144.45 16.9517H136.458ZM159.831 19.3997L155.745 6.79967H159.417L162.855 17.7077H161.001L164.619 6.79967H167.895L171.315 17.7077H169.533L173.079 6.79967H176.481L172.395 19.3997H168.579L165.663 10.1297H166.689L163.647 19.3997H159.831ZM182.234 11.6777H188.084V14.3417H182.234V11.6777ZM182.486 16.6457H189.074V19.3997H178.958V6.79967H188.84V9.55367H182.486V16.6457ZM192.251 19.3997V6.79967H198.011C199.163 6.79967 200.153 6.98567 200.981 7.35767C201.821 7.72967 202.469 8.26967 202.925 8.97767C203.381 9.67367 203.609 10.5017 203.609 11.4617C203.609 12.4097 203.381 13.2317 202.925 13.9277C202.469 14.6117 201.821 15.1397 200.981 15.5117C200.153 15.8717 199.163 16.0517 198.011 16.0517H194.231L195.815 14.5577V19.3997H192.251ZM200.045 19.3997L196.913 14.8097H200.711L203.861 19.3997H200.045ZM195.815 14.9357L194.231 13.2977H197.795C198.539 13.2977 199.091 13.1357 199.451 12.8117C199.823 12.4877 200.009 12.0377 200.009 11.4617C200.009 10.8737 199.823 10.4177 199.451 10.0937C199.091 9.76967 198.539 9.60767 197.795 9.60767H194.231L195.815 7.96967V14.9357ZM206.776 19.3997V6.79967H209.71L216.658 15.1877H215.272V6.79967H218.764V19.3997H215.83L208.882 11.0117H210.268V19.3997H206.776ZM225.754 11.6777H231.604V14.3417H225.754V11.6777ZM226.006 16.6457H232.594V19.3997H222.478V6.79967H232.36V9.55367H226.006V16.6457ZM235.771 19.3997V6.79967H241.531C242.683 6.79967 243.673 6.98567 244.501 7.35767C245.341 7.72967 245.989 8.26967 246.445 8.97767C246.901 9.67367 247.129 10.5017 247.129 11.4617C247.129 12.4097 246.901 13.2317 246.445 13.9277C245.989 14.6117 245.341 15.1397 244.501 15.5117C243.673 15.8717 242.683 16.0517 241.531 16.0517H237.751L239.335 14.5577V19.3997H235.771ZM243.565 19.3997L240.433 14.8097H244.231L247.381 19.3997H243.565ZM239.335 14.9357L237.751 13.2977H241.315C242.059 13.2977 242.611 13.1357 242.971 12.8117C243.343 12.4877 243.529 12.0377 243.529 11.4617C243.529 10.8737 243.343 10.4177 242.971 10.0937C242.611 9.76967 242.059 9.60767 241.315 9.60767H237.751L239.335 7.96967V14.9357Z" fill="white"/>
<rect x="2" width="36.4994" height="49.3235" rx="1" fill="white"/>
<path d="M32.5674 7.26367H23.4786C23.2189 7.26367 23.0458 6.86367 23.0458 6.26367C23.0458 5.66367 23.2189 5.26367 23.4786 5.26367H32.5674C32.827 5.26367 33.0002 5.66367 33.0002 6.26367C33.0002 6.86367 32.827 7.26367 32.5674 7.26367Z" fill="#A6A6A6"/>
<path d="M34.6545 12.2637H26.4371C26.2023 12.2637 26.0458 11.8637 26.0458 11.2637C26.0458 10.6637 26.2023 10.2637 26.4371 10.2637H34.6545C34.8893 10.2637 35.0458 10.6637 35.0458 11.2637C35.0458 11.8637 34.8893 12.2637 34.6545 12.2637Z" fill="#A6A6A6"/>
<path d="M37.5675 20.2637H27.524C27.2371 20.2637 27.0458 19.8637 27.0458 19.2637C27.0458 18.6637 27.2371 18.2637 27.524 18.2637H37.5675C37.8545 18.2637 38.0458 18.6637 38.0458 19.2637C38.0458 19.8637 37.8545 20.2637 37.5675 20.2637Z" fill="#A6A6A6"/>
<path d="M31.6545 25.2637H23.4371C23.2023 25.2637 23.0458 24.8637 23.0458 24.2637C23.0458 23.6637 23.2023 23.2637 23.4371 23.2637H31.6545C31.8893 23.2637 32.0458 23.6637 32.0458 24.2637C32.0458 24.8637 31.8893 25.2637 31.6545 25.2637Z" fill="#A6A6A6"/>
<path d="M36.0236 31.2637H10.272C9.53628 31.2637 9.04578 30.8637 9.04578 30.2637C9.04578 29.6637 9.53628 29.2637 10.272 29.2637H36.0236C36.7594 29.2637 37.2499 29.6637 37.2499 30.2637C37.2499 30.8637 36.7594 31.2637 36.0236 31.2637Z" fill="#A6A6A6"/>
<path d="M26.502 37.2637H9.83924C9.36316 37.2637 9.04578 36.8637 9.04578 36.2637C9.04578 35.6637 9.36316 35.2637 9.83924 35.2637H26.502C26.9781 35.2637 27.2955 35.6637 27.2955 36.2637C27.2955 36.8637 26.9781 37.2637 26.502 37.2637Z" fill="#A6A6A6"/>
<path d="M34.4367 43.2637H10.1999C9.50743 43.2637 9.04578 42.8637 9.04578 42.2637C9.04578 41.6637 9.50743 41.2637 10.1999 41.2637H34.4367C35.1292 41.2637 35.5908 41.6637 35.5908 42.2637C35.5908 42.8637 35.1292 43.2637 34.4367 43.2637Z" fill="#A6A6A6"/>
<path d="M13.2958 13.5137C14.5461 13.5137 15.7452 13.0001 16.6293 12.0858C17.5134 11.1716 18.0101 9.9316 18.0101 8.63867C18.0101 7.34574 17.5134 6.10577 16.6293 5.19153C15.7452 4.27729 14.5461 3.76367 13.2958 3.76367C12.0455 3.76367 10.8464 4.27729 9.96227 5.19153C9.07817 6.10577 8.58149 7.34574 8.58149 8.63867C8.58149 9.9316 9.07817 11.1716 9.96227 12.0858C10.8464 13.0001 12.0455 13.5137 13.2958 13.5137ZM11.6126 15.3418C7.98484 15.3418 5.04578 18.3811 5.04578 22.1325C5.04578 22.7571 5.53562 23.2637 6.13964 23.2637H20.4519C21.0559 23.2637 21.5458 22.7571 21.5458 22.1325C21.5458 18.3811 18.6067 15.3418 14.9789 15.3418H11.6126Z" fill="#DA6623"/>
<path d="M30.8943 50.4312C31.4139 51.4059 32.6252 51.7749 33.6 51.2554C34.5747 50.7359 34.9438 49.5245 34.4242 48.5497L30.8943 50.4312ZM18.7809 27.7042L30.8943 50.4312L34.4242 48.5497L22.3108 25.8228L18.7809 27.7042Z" fill="#11232A"/>
<path d="M28 15.5C28 22.9558 21.9558 29 14.5 29C7.04416 29 1 22.9558 1 15.5C1 8.04416 7.04416 2 14.5 2C21.9558 2 28 8.04416 28 15.5Z" stroke="#11232A" stroke-width="2"/>
</svg>
